<svg width="490" height="190" viewBox="0 0 490 190" fill="none" xmlns="http://www.w3.org/2000/svg">
<path d="M67.0391 107.727L92.4125 96.4336L107.017 104.903L109.967 132.69L91.97 132.542L94.6253 113.225L91.5274 111.441L76.3328 123.329L67.0391 107.727Z" fill="white"/>
<path d="M108.641 103.714L131.064 120.208L139.915 104.308L121.917 97.0271V93.4608L139.915 86.0312L131.064 70.2803L108.641 86.7741V103.714Z" fill="white"/>
<path d="M107.017 85.4373L109.967 57.6504L91.97 57.9476L94.6253 77.2647L91.5274 79.0478L76.1853 67.1604L67.0391 82.614L92.4125 93.9071L107.017 85.4373Z" fill="white"/>
<path d="M199.958 91.8402V117.873H209.644V84.6968H195.538V91.8402H199.958Z" fill="white"/>
<path d="M199.655 80.0353C200.543 80.9634 201.895 81.4275 203.711 81.4275C205.528 81.4275 206.859 80.9634 207.706 80.0353C208.595 79.0663 209.038 77.8555 209.038 76.4029C209.038 74.9094 208.595 73.6985 207.706 72.7705C206.859 71.8019 205.528 71.3174 203.711 71.3174C201.895 71.3174 200.543 71.8019 199.655 72.7705C198.808 73.6985 198.384 74.9094 198.384 76.4029C198.384 77.8555 198.808 79.0663 199.655 80.0353Z" fill="white"/>
<path d="M166.238 117.146C168.982 118.397 172.352 119.023 176.347 119.023C180.101 119.023 183.329 118.438 186.034 117.267C188.738 116.097 190.816 114.462 192.269 112.364C193.763 110.224 194.509 107.742 194.509 104.917C194.509 102.173 193.804 99.8519 192.391 97.9547C191.018 96.0176 189.102 94.5041 186.639 93.4147C184.177 92.2843 181.332 91.578 178.103 91.2958L174.713 90.9931C172.695 90.8312 171.242 90.2868 170.354 89.3582C169.466 88.4301 169.022 87.3402 169.022 86.0894C169.022 85.1203 169.265 84.2327 169.748 83.4255C170.233 82.5778 170.959 81.912 171.928 81.4275C172.937 80.9434 174.168 80.7012 175.621 80.7012C177.154 80.7012 178.426 80.9834 179.435 81.5488C179.657 81.6683 179.868 81.796 180.066 81.9315L180.114 81.9651C180.188 82.0163 180.261 82.0694 180.332 82.123C180.945 82.5915 181.433 83.1467 181.796 83.7886C182.32 84.6768 182.584 85.6653 182.584 86.7552H192.269C192.269 83.8491 191.603 81.3266 190.272 79.1877C188.94 77.0083 187.023 75.3334 184.521 74.1626C182.058 72.9518 179.092 72.3464 175.621 72.3464C172.311 72.3464 169.446 72.9118 167.024 74.0417C164.603 75.1316 162.706 76.7056 161.334 78.7636C160.001 80.8221 159.335 83.2642 159.335 86.0894C159.335 90.004 160.648 93.152 163.271 95.5336C165.894 97.9148 169.406 99.2869 173.805 99.6501L177.135 99.9528C179.838 100.195 181.796 100.74 183.007 101.587C184.217 102.394 184.823 103.504 184.823 104.917C184.823 105.566 184.717 106.175 184.504 106.744C184.346 107.166 184.13 107.566 183.855 107.944C183.208 108.792 182.26 109.457 181.009 109.942C179.758 110.426 178.204 110.668 176.347 110.668C174.289 110.668 172.614 110.386 171.323 109.821C170.031 109.215 169.063 108.428 168.416 107.46C167.811 106.491 167.509 105.442 167.509 104.312H157.883C157.883 107.177 158.589 109.72 160.001 111.94C161.414 114.119 163.493 115.855 166.238 117.146Z" fill="white"/>
<path d="M231.256 118.296C227.906 118.296 225.202 117.893 223.144 117.085C221.085 116.238 219.572 114.846 218.603 112.909C217.675 110.931 217.211 108.267 217.211 104.917V91.7798H212.186V84.6968H217.211V75.737H226.231V84.6968H235.918V91.7798H226.231V105.281C226.231 106.855 226.635 108.065 227.442 108.912C228.289 109.72 229.48 110.123 231.014 110.123H235.918V118.296H231.256Z" fill="white"/>
<path fill-rule="evenodd" clip-rule="evenodd" d="M247.58 117.57C249.759 118.539 252.262 119.023 255.087 119.023C257.871 119.023 260.334 118.539 262.473 117.57C264.612 116.601 266.388 115.249 267.8 113.514C269.213 111.778 270.162 109.801 270.645 107.581H261.746C261.343 108.59 260.576 109.437 259.446 110.123C258.316 110.81 256.862 111.153 255.087 111.153C253.987 111.153 253.004 111.023 252.138 110.762C251.479 110.564 250.888 110.291 250.365 109.942C249.154 109.135 248.266 108.004 247.701 106.552C247.544 106.138 247.41 105.705 247.297 105.254C247.182 104.798 247.089 104.322 247.019 103.827H271.251V100.558C271.251 97.5312 270.605 94.7464 269.314 92.2039C268.022 89.6204 266.145 87.542 263.684 85.968C261.262 84.3536 258.275 83.5464 254.723 83.5464C252.019 83.5464 249.597 84.0309 247.458 84.9995C245.361 85.9275 243.605 87.1988 242.192 88.8132C240.78 90.4276 239.69 92.2643 238.922 94.3228C238.196 96.3403 237.833 98.4592 237.833 100.679V101.89C237.833 104.029 238.196 106.128 238.922 108.186C239.69 110.204 240.78 112.04 242.192 113.695C243.645 115.31 245.44 116.601 247.58 117.57ZM247.186 97.8412C247.213 97.713 247.241 97.5867 247.272 97.4624C247.356 97.1202 247.453 96.7922 247.563 96.4788C247.625 96.3004 247.691 96.1263 247.762 95.9572C248.367 94.4637 249.255 93.3338 250.425 92.567C250.863 92.2804 251.337 92.0474 251.846 91.868C252.702 91.5673 253.662 91.4167 254.723 91.4167C256.379 91.4167 257.75 91.8003 258.84 92.567C259.97 93.2933 260.818 94.3628 261.383 95.7754C261.429 95.8894 261.472 96.0055 261.514 96.1229C261.581 96.3101 261.643 96.5022 261.701 96.6991C261.786 96.992 261.861 97.2952 261.927 97.6087C261.975 97.8397 262.016 98.0761 262.053 98.3184H247.093C247.121 98.1565 247.152 97.9976 247.186 97.8412Z" fill="white"/>
<path d="M275.248 117.873V84.6968H282.937V93.0525C283.041 92.5558 283.16 92.0791 283.293 91.6219C283.407 91.2368 283.529 90.8654 283.663 90.5085C284.511 88.2483 285.782 86.5534 287.477 85.423C289.172 84.2527 291.25 83.6678 293.713 83.6678H294.136C296.639 83.6678 298.717 84.2527 300.372 85.423C302.067 86.5534 303.339 88.2483 304.186 90.5085L304.253 90.6792L304.31 90.8351C304.348 90.725 304.388 90.6163 304.428 90.5085C305.316 88.2483 306.608 86.5534 308.303 85.423C309.998 84.2527 312.077 83.6678 314.539 83.6678H314.963C317.464 83.6678 319.563 84.2527 321.258 85.423C322.994 86.5534 324.306 88.2483 325.193 90.5085C326.081 92.7688 326.526 95.5941 326.526 98.9842V117.873H316.839V98.4393C316.839 96.623 316.355 95.15 315.386 94.0201C314.458 92.8897 313.126 92.3248 311.391 92.3248C309.655 92.3248 308.283 92.9102 307.274 94.0805C306.265 95.2104 305.76 96.7239 305.76 98.6211V117.873H296.013V98.4393C296.013 96.623 295.529 95.15 294.56 94.0201C293.632 92.8897 292.32 92.3248 290.626 92.3248C288.849 92.3248 287.457 92.9102 286.448 94.0805C285.439 95.2104 284.934 96.7239 284.934 98.6211V117.873H275.248Z" fill="white"/>
<path fill-rule="evenodd" clip-rule="evenodd" d="M352.4 111.48V117.873H360.088V97.5312C360.088 94.4637 359.483 91.9616 358.272 90.024C357.061 88.0465 355.286 86.5734 352.945 85.6049C350.645 84.6363 347.799 84.1518 344.409 84.1518C343.674 84.1518 342.907 84.1596 342.107 84.1757C341.635 84.1854 341.15 84.1976 340.655 84.2122C339.323 84.2527 338.031 84.3131 336.781 84.394L335.825 84.4584C335.334 84.4925 334.873 84.5261 334.439 84.5603C334.113 84.5856 333.804 84.611 333.512 84.6363V92.8093C334.763 92.7284 336.155 92.6475 337.689 92.567C338.118 92.5446 338.543 92.5236 338.965 92.5041C339.575 92.4759 340.176 92.4515 340.771 92.4301C341.241 92.413 341.707 92.3979 342.169 92.3852C343.621 92.3447 344.792 92.3248 345.68 92.3248C347.456 92.3248 348.747 92.7484 349.555 93.596C350.362 94.4437 350.765 95.7149 350.765 97.4103V97.5312H344.772C341.826 97.5312 339.223 97.9148 336.962 98.6815C334.702 99.4078 332.946 100.558 331.696 102.132C330.444 103.666 329.819 105.644 329.819 108.065C329.819 110.285 330.323 112.202 331.332 113.817C332.341 115.391 333.733 116.601 335.509 117.449C337.326 118.296 339.425 118.72 341.805 118.72C344.106 118.72 346.043 118.296 347.618 117.449C349.232 116.601 350.483 115.391 351.371 113.817C351.527 113.551 351.673 113.276 351.809 112.99C352.001 112.586 352.172 112.161 352.323 111.715L352.4 111.48ZM350.765 105.583V102.919H344.711C343.016 102.919 341.705 103.343 340.777 104.191C339.889 104.998 339.444 106.108 339.444 107.52C339.444 108.185 339.555 108.79 339.776 109.334C339.999 109.88 340.332 110.365 340.777 110.79C341.705 111.597 343.016 112 344.711 112C345.034 112 345.346 111.984 345.647 111.953C345.893 111.927 346.132 111.89 346.363 111.843C346.807 111.753 347.226 111.624 347.618 111.455C348.506 111.052 349.232 110.386 349.796 109.457C350.362 108.529 350.685 107.238 350.765 105.583Z" fill="white"/>
<path d="M365.885 117.873V84.6968H373.574V95.6472C373.942 92.5212 374.871 90.0006 376.359 88.0869C378.377 85.5444 381.282 84.2732 385.077 84.2732H386.348V92.6275H383.926C381.263 92.6275 379.204 93.3538 377.751 94.8068C376.298 96.2194 375.571 98.2779 375.571 100.982V117.873H365.885Z" fill="white"/>
<path d="M398.631 102.374H401.84L412.313 117.873H423.21L409.93 98.839L420.849 84.6968H410.679L398.631 100.471V73.6786H388.945V117.873H398.631V102.374Z" fill="white"/>
</svg>
