<svg width="490" height="190" viewBox="0 0 490 190" fill="none" xmlns="http://www.w3.org/2000/svg">
<g clip-path="url(#clip0_17_103)">
<path d="M159.503 77.1182C163.222 77.1182 166.441 77.7379 169.16 78.9775C171.919 80.217 174.038 81.9764 175.517 84.2555C176.997 86.5347 177.737 89.2337 177.737 92.3525C177.737 95.4314 176.997 98.1304 175.517 100.45C174.038 102.729 171.919 104.488 169.16 105.728C166.441 106.927 163.222 107.527 159.503 107.527H151.046V119.103H141.33V77.1182H159.503ZM158.964 99.6099C161.882 99.6099 164.102 98.9901 165.621 97.7506C167.141 96.471 167.9 94.6717 167.9 92.3525C167.9 89.9934 167.141 88.1941 165.621 86.9545C164.102 85.675 161.882 85.0352 158.964 85.0352H151.046V99.6099H158.964Z" fill="white"/>
<path d="M189.952 91.093C191.071 89.5336 192.571 88.354 194.45 87.5543C196.369 86.7546 198.568 86.3548 201.047 86.3548V94.9916C200.008 94.9116 199.308 94.8716 198.948 94.8716C196.269 94.8716 194.17 95.6313 192.651 97.1508C191.131 98.6302 190.371 100.869 190.371 103.868V119.103H181.015V86.8346H189.952V91.093Z" fill="white"/>
<path d="M218.673 119.583C215.275 119.583 212.216 118.883 209.497 117.483C206.818 116.044 204.719 114.065 203.199 111.545C201.68 109.026 200.92 106.167 200.92 102.969C200.92 99.7698 201.68 96.9109 203.199 94.3918C204.719 91.8727 206.818 89.9134 209.497 88.514C212.216 87.0745 215.275 86.3548 218.673 86.3548C222.072 86.3548 225.111 87.0745 227.79 88.514C230.469 89.9134 232.568 91.8727 234.088 94.3918C235.607 96.9109 236.367 99.7698 236.367 102.969C236.367 106.167 235.607 109.026 234.088 111.545C232.568 114.065 230.469 116.044 227.79 117.483C225.111 118.883 222.072 119.583 218.673 119.583ZM218.673 111.905C221.073 111.905 223.032 111.106 224.551 109.506C226.111 107.867 226.89 105.688 226.89 102.969C226.89 100.25 226.111 98.0904 224.551 96.491C223.032 94.8516 221.073 94.0319 218.673 94.0319C216.274 94.0319 214.295 94.8516 212.736 96.491C211.176 98.0904 210.396 100.25 210.396 102.969C210.396 105.688 211.176 107.867 212.736 109.506C214.295 111.106 216.274 111.905 218.673 111.905Z" fill="white"/>
<path d="M278.788 77.1182V119.103H270.811L249.878 93.6121V119.103H240.282V77.1182H248.319L269.191 102.609V77.1182H278.788Z" fill="white"/>
<path d="M298.078 86.3548C303.076 86.3548 306.914 87.5543 309.593 89.9534C312.272 92.3126 313.612 95.8912 313.612 100.689V119.103H304.855V115.084C303.096 118.083 299.817 119.583 295.019 119.583C292.54 119.583 290.38 119.163 288.541 118.323C286.742 117.483 285.362 116.324 284.403 114.844C283.443 113.365 282.963 111.685 282.963 109.806C282.963 106.807 284.083 104.448 286.322 102.729C288.601 101.009 292.1 100.15 296.818 100.15H304.255C304.255 98.1104 303.636 96.551 302.396 95.4714C301.156 94.3518 299.297 93.792 296.818 93.792C295.099 93.792 293.399 94.0719 291.72 94.6317C290.081 95.1515 288.681 95.8713 287.521 96.7909L284.163 90.2533C285.922 89.0138 288.021 88.0541 290.46 87.3744C292.939 86.6946 295.479 86.3548 298.078 86.3548ZM297.358 113.285C298.957 113.285 300.377 112.925 301.616 112.205C302.856 111.446 303.735 110.346 304.255 108.906V105.608H297.838C293.999 105.608 292.08 106.867 292.08 109.386C292.08 110.586 292.54 111.545 293.459 112.265C294.419 112.945 295.718 113.285 297.358 113.285Z" fill="white"/>
<path d="M339.893 117.543C338.974 118.223 337.834 118.743 336.475 119.103C335.155 119.423 333.756 119.583 332.276 119.583C328.438 119.583 325.459 118.603 323.34 116.644C321.26 114.684 320.221 111.805 320.221 108.007V94.7517H315.243V87.5543H320.221V79.6972H329.577V87.5543H337.614V94.7517H329.577V107.887C329.577 109.246 329.917 110.306 330.597 111.066C331.317 111.785 332.316 112.145 333.596 112.145C335.075 112.145 336.335 111.745 337.374 110.946L339.893 117.543Z" fill="white"/>
<path d="M374.655 86.8346V119.103H365.778V115.264C364.539 116.664 363.059 117.743 361.34 118.503C359.62 119.223 357.761 119.583 355.762 119.583C351.523 119.583 348.165 118.363 345.685 115.924C343.206 113.485 341.967 109.866 341.967 105.068V86.8346H351.323V103.688C351.323 108.886 353.503 111.485 357.861 111.485C360.1 111.485 361.9 110.766 363.259 109.326C364.618 107.847 365.298 105.668 365.298 102.789V86.8346H374.655Z" fill="white"/>
<path d="M389.261 91.093C390.38 89.5336 391.88 88.354 393.759 87.5543C395.678 86.7546 397.878 86.3548 400.357 86.3548V94.9916C399.317 94.9116 398.617 94.8716 398.258 94.8716C395.578 94.8716 393.479 95.6313 391.96 97.1508C390.44 98.6302 389.681 100.869 389.681 103.868V119.103H380.324V86.8346H389.261V91.093Z" fill="white"/>
<path d="M434.237 103.089C434.237 103.209 434.177 104.048 434.057 105.608H409.646C410.086 107.607 411.125 109.186 412.765 110.346C414.404 111.505 416.443 112.085 418.882 112.085C420.562 112.085 422.041 111.845 423.321 111.366C424.64 110.846 425.86 110.046 426.979 108.966L431.958 114.364C428.919 117.843 424.48 119.583 418.642 119.583C415.004 119.583 411.785 118.883 408.986 117.483C406.187 116.044 404.028 114.065 402.508 111.545C400.989 109.026 400.229 106.167 400.229 102.969C400.229 99.8098 400.969 96.9708 402.448 94.4518C403.968 91.8927 406.027 89.9134 408.626 88.514C411.265 87.0745 414.204 86.3548 417.443 86.3548C420.602 86.3548 423.461 87.0345 426.02 88.394C428.579 89.7535 430.578 91.7128 432.018 94.2718C433.497 96.7909 434.237 99.7298 434.237 103.089ZM417.503 93.4321C415.384 93.4321 413.604 94.0319 412.165 95.2315C410.725 96.431 409.846 98.0704 409.526 100.15H425.42C425.1 98.1104 424.22 96.491 422.781 95.2915C421.341 94.0519 419.582 93.4321 417.503 93.4321Z" fill="white"/>
<path fill-rule="evenodd" clip-rule="evenodd" d="M88.045 53.7367C86.6194 52.912 84.8617 52.912 83.4361 53.7367C73.3102 59.5942 66.4807 70.5537 66.4807 83.1137C66.4807 84.9039 66.6195 86.6615 66.8867 88.3764C59.9161 86.0092 52.3686 86.8706 46.2039 90.4229C44.7769 91.2452 43.898 92.7674 43.8994 94.4143C43.9067 103.103 48.4203 111.571 56.5039 116.238C60.4696 118.528 64.7981 119.616 69.0677 119.618C68.4181 121.459 68.0647 123.439 68.0647 125.502C68.0647 135.264 75.9782 143.177 85.7399 143.177C95.502 143.177 103.415 135.264 103.415 125.502C103.415 123.435 103.06 121.45 102.408 119.606C106.423 119.479 110.467 118.389 114.191 116.239C122.275 111.571 126.788 103.103 126.795 94.4147C126.797 92.7677 125.918 91.2456 124.491 90.4233C118.569 87.0109 111.371 86.0816 104.635 88.112C104.876 86.481 105 84.812 105 83.1137C105 70.5537 98.171 59.5942 88.045 53.7367ZM75.6851 83.1137C75.6851 74.9576 79.6343 67.7195 85.7405 63.2141C91.8468 67.7195 95.796 74.9576 95.796 83.1137C95.796 91.2699 91.8468 98.508 85.7405 103.013C79.6343 98.508 75.6851 91.2699 75.6851 83.1137ZM103.891 98.3984C108.141 95.9446 113.052 95.6592 117.342 97.2118C116.542 101.703 113.839 105.813 109.589 108.267C105.339 110.721 100.428 111.007 96.138 109.454C96.938 104.962 99.641 100.852 103.891 98.3984ZM53.3531 97.2115C57.6429 95.6588 62.5537 95.9442 66.8038 98.398C71.054 100.852 73.7566 104.962 74.5569 109.454C70.267 111.006 65.3562 110.721 61.1061 108.267C56.856 105.813 54.1533 101.703 53.3531 97.2115ZM77.2691 125.502C77.2691 120.824 81.0616 117.031 85.7399 117.031C90.4182 117.031 94.211 120.824 94.211 125.502C94.211 130.18 90.4182 133.973 85.7399 133.973C81.0616 133.973 77.2691 130.18 77.2691 125.502Z" fill="white"/>
</g>
<defs>
<clipPath id="clip0_17_103">
<rect width="490" height="190" fill="white"/>
</clipPath>
</defs>
</svg>
