<svg width="490" height="190" viewBox="0 0 490 190" fill="none" xmlns="http://www.w3.org/2000/svg">
<path d="M164.512 114.705C161.506 114.705 158.822 113.975 156.46 112.515C154.098 111.055 152.23 109.058 150.856 106.524C149.482 103.99 148.795 101.113 148.795 97.8924C148.795 94.6716 149.482 91.8159 150.856 89.3251C152.23 86.7914 154.098 84.816 156.46 83.3989C158.822 81.9388 161.506 81.2087 164.512 81.2087C166.917 81.2087 169.021 81.6597 170.825 82.5615C172.628 83.4633 174.089 84.7301 175.205 86.362V69.8042H183.45V113.932H176.107L175.205 109.358C174.174 110.776 172.8 112.021 171.083 113.095C169.408 114.168 167.218 114.705 164.512 114.705ZM166.252 107.49C168.914 107.49 171.083 106.61 172.757 104.849C174.475 103.046 175.334 100.748 175.334 97.9568C175.334 95.1655 174.475 92.8895 172.757 91.1288C171.083 89.3251 168.914 88.4233 166.252 88.4233C163.632 88.4233 161.463 89.3037 159.746 91.0643C158.028 92.825 157.169 95.1011 157.169 97.8924C157.169 100.684 158.028 102.981 159.746 104.785C161.463 106.589 163.632 107.49 166.252 107.49Z" fill="white"/>
<path d="M204.799 114.705C201.578 114.705 198.723 114.018 196.232 112.644C193.741 111.269 191.787 109.337 190.37 106.846C188.953 104.355 188.244 101.478 188.244 98.2145C188.244 94.9078 188.932 91.9662 190.306 89.3895C191.723 86.8129 193.655 84.816 196.103 83.3989C198.594 81.9388 201.514 81.2087 204.864 81.2087C207.999 81.2087 210.768 81.8958 213.173 83.27C215.578 84.6442 217.446 86.5338 218.777 88.9386C220.152 91.3005 220.839 93.9416 220.839 96.8618C220.839 97.3341 220.817 97.828 220.774 98.3433C220.774 98.8587 220.753 99.3954 220.71 99.9537H196.425C196.597 102.445 197.456 104.398 199.002 105.815C200.591 107.233 202.502 107.941 204.735 107.941C206.41 107.941 207.805 107.576 208.922 106.846C210.081 106.073 210.94 105.085 211.499 103.883H219.873C219.271 105.901 218.262 107.748 216.845 109.423C215.471 111.055 213.753 112.343 211.692 113.288C209.673 114.233 207.376 114.705 204.799 114.705ZM204.864 87.908C202.845 87.908 201.063 88.4877 199.517 89.6472C197.971 90.7637 196.984 92.4815 196.554 94.8005H212.465C212.336 92.6962 211.563 91.0214 210.146 89.776C208.729 88.5307 206.968 87.908 204.864 87.908Z" fill="white"/>
<path d="M225.202 113.932V81.9817H232.481L233.125 87.3926C234.113 85.5031 235.53 84.0001 237.377 82.8836C239.266 81.767 241.478 81.2087 244.012 81.2087C247.962 81.2087 251.033 82.4541 253.223 84.9449C255.413 87.4356 256.508 91.0858 256.508 95.8955V113.932H248.263V96.6685C248.263 93.9201 247.705 91.8159 246.588 90.3558C245.472 88.8957 243.732 88.1656 241.37 88.1656C239.051 88.1656 237.14 88.9816 235.637 90.6134C234.177 92.2453 233.447 94.5213 233.447 97.4415V113.932H225.202Z" fill="white"/>
<path d="M264.393 113.932V81.9817H271.672L272.38 86.2976C273.411 84.7516 274.763 83.5277 276.438 82.6259C278.156 81.6811 280.131 81.2087 282.365 81.2087C287.303 81.2087 290.803 83.1197 292.864 86.9417C294.024 85.181 295.57 83.7854 297.502 82.7547C299.478 81.7241 301.625 81.2087 303.944 81.2087C308.109 81.2087 311.309 82.4541 313.542 84.9449C315.775 87.4356 316.891 91.0858 316.891 95.8955V113.932H308.646V96.6685C308.646 93.9201 308.109 91.8159 307.036 90.3558C306.005 88.8957 304.395 88.1656 302.205 88.1656C299.971 88.1656 298.168 88.9816 296.794 90.6134C295.462 92.2453 294.797 94.5213 294.797 97.4415V113.932H286.552V96.6685C286.552 93.9201 286.015 91.8159 284.941 90.3558C283.868 88.8957 282.214 88.1656 279.981 88.1656C277.791 88.1656 276.009 88.9816 274.635 90.6134C273.303 92.2453 272.638 94.5213 272.638 97.4415V113.932H264.393Z" fill="white"/>
<path d="M333.163 114.705C330.415 114.705 328.16 114.276 326.399 113.417C324.639 112.515 323.329 111.334 322.47 109.874C321.611 108.414 321.182 106.803 321.182 105.043C321.182 102.079 322.341 99.6746 324.66 97.828C326.979 95.9814 330.458 95.0581 335.095 95.0581H343.212V94.2851C343.212 92.095 342.589 90.4846 341.344 89.454C340.098 88.4233 338.552 87.908 336.706 87.908C335.031 87.908 333.571 88.3159 332.326 89.1319C331.08 89.9049 330.307 91.0643 330.007 92.6103H321.955C322.169 90.2914 322.942 88.273 324.274 86.5552C325.648 84.8375 327.409 83.5277 329.556 82.6259C331.703 81.6811 334.108 81.2087 336.77 81.2087C341.322 81.2087 344.908 82.3468 347.528 84.6228C350.147 86.8988 351.457 90.1196 351.457 94.2851V113.932H344.436L343.663 108.779C342.718 110.496 341.387 111.914 339.669 113.03C337.994 114.147 335.826 114.705 333.163 114.705ZM335.031 108.263C337.393 108.263 339.218 107.49 340.506 105.944C341.838 104.398 342.675 102.487 343.019 100.211H335.997C333.807 100.211 332.24 100.619 331.295 101.435C330.35 102.208 329.878 103.174 329.878 104.334C329.878 105.579 330.35 106.546 331.295 107.233C332.24 107.92 333.485 108.263 335.031 108.263Z" fill="white"/>
<path d="M359.325 113.932V81.9817H366.669L367.442 87.9724C368.601 85.9111 370.169 84.2792 372.144 83.0768C374.162 81.8314 376.524 81.2087 379.23 81.2087V89.9049H376.911C375.107 89.9049 373.497 90.184 372.08 90.7423C370.663 91.3005 369.546 92.2668 368.73 93.641C367.957 95.0152 367.571 96.9262 367.571 99.374V113.932H359.325Z" fill="white"/>
<path d="M382.294 113.932V69.8042H390.539V94.9293L401.876 81.9817H411.667L398.591 96.5397L413.793 113.932H403.487L390.539 97.8924V113.932H382.294Z" fill="white"/>
<path d="M115.663 60.2856H83.1582V70.5607H115.663C120.295 70.5607 124.051 74.3164 124.051 78.9493V106.001C124.051 110.634 120.295 114.39 115.663 114.39H83.1582V124.665H115.663C125.97 124.665 134.326 116.309 134.326 106.001V78.9493C134.326 68.6416 125.97 60.2856 115.663 60.2856Z" fill="white"/>
<path d="M114.194 80.5792L106.912 73.3294L83.3737 96.9701L76.2813 89.847L69 97.0969L83.3737 111.533L114.194 80.5792Z" fill="white"/>
</svg>
