<svg width="490" height="190" viewBox="0 0 490 190" fill="none" xmlns="http://www.w3.org/2000/svg">
<path d="M84.9299 82.3604C87.1871 81.0573 90.8467 81.0573 93.1039 82.3604L136.895 107.641C139.152 108.944 139.152 111.057 136.895 112.36L93.1039 137.641C90.8467 138.944 87.1871 138.944 84.9299 137.641L41.1387 112.36C38.8815 111.057 38.8815 108.944 41.1387 107.641L84.9299 82.3604Z" fill="#CBCBCB"/>
<path d="M84.8782 68.0794C87.1353 66.7763 90.7949 66.7763 93.0521 68.0794L136.843 93.36C139.101 94.6631 139.101 96.7758 136.843 98.0789L93.0521 123.359C90.7949 124.663 87.1353 124.663 84.8782 123.359L41.0869 98.0789C38.8298 96.7758 38.8298 94.6631 41.0869 93.36L84.8782 68.0794Z" fill="#EBEBEB"/>
<path d="M84.8782 52.3594C87.1353 51.0563 90.7949 51.0563 93.0521 52.3594L136.843 77.6401C139.101 78.9431 139.101 81.0558 136.843 82.3589L93.0521 107.64C90.7949 108.943 87.1353 108.943 84.8782 107.64L41.0869 82.3589C38.8298 81.0558 38.8298 78.9431 41.0869 77.6401L84.8782 52.3594Z" fill="white"/>
<path d="M177.914 118.467L160.302 74.9035H168.081L181.834 110.19H179.096L192.974 74.9035H200.629L182.892 118.467H177.914ZM212.429 119.089C209.732 119.089 207.284 118.404 205.085 117.035C202.928 115.666 201.206 113.82 199.92 111.496C198.675 109.132 198.053 106.497 198.053 103.593C198.053 100.647 198.675 98.0126 199.92 95.6893C201.206 93.3244 202.928 91.4574 205.085 90.0883C207.284 88.6777 209.732 87.9724 212.429 87.9724C214.711 87.9724 216.723 88.4703 218.465 89.466C220.249 90.4202 221.66 91.7479 222.697 93.4489C223.734 95.1499 224.253 97.0791 224.253 99.2366V107.825C224.253 109.982 223.734 111.911 222.697 113.612C221.701 115.313 220.312 116.662 218.528 117.658C216.743 118.612 214.711 119.089 212.429 119.089ZM213.549 112.617C216.08 112.617 218.113 111.766 219.648 110.065C221.224 108.364 222.013 106.186 222.013 103.531C222.013 101.747 221.66 100.17 220.955 98.8009C220.249 97.4318 219.254 96.3738 217.967 95.627C216.723 94.8388 215.25 94.4446 213.549 94.4446C211.889 94.4446 210.416 94.8388 209.13 95.627C207.886 96.3738 206.89 97.4318 206.143 98.8009C205.438 100.17 205.085 101.747 205.085 103.531C205.085 105.315 205.438 106.891 206.143 108.26C206.89 109.629 207.886 110.708 209.13 111.496C210.416 112.243 211.889 112.617 213.549 112.617ZM221.577 118.467V110.438L222.759 103.157L221.577 95.9382V88.5947H228.423V118.467H221.577ZM256.494 118.467V101.228C256.494 99.2366 255.851 97.5978 254.565 96.3116C253.321 95.0255 251.703 94.3824 249.711 94.3824C248.383 94.3824 247.201 94.6728 246.164 95.2536C245.127 95.8345 244.318 96.6435 243.737 97.6807C243.156 98.718 242.865 99.9004 242.865 101.228L240.189 99.7344C240.189 97.4525 240.687 95.4403 241.683 93.6978C242.679 91.9138 244.048 90.5239 245.79 89.5282C247.574 88.491 249.566 87.9724 251.765 87.9724C254.005 87.9724 255.997 88.5532 257.739 89.7149C259.482 90.8351 260.851 92.308 261.847 94.1335C262.842 95.9175 263.34 97.7845 263.34 99.7344V118.467H256.494ZM236.02 118.467V88.5947H242.865V118.467H236.02ZM284.05 119.089C281.104 119.089 278.428 118.404 276.022 117.035C273.657 115.666 271.79 113.799 270.421 111.434C269.052 109.069 268.367 106.435 268.367 103.531C268.367 100.585 269.052 97.9504 270.421 95.627C271.79 93.2622 273.657 91.3952 276.022 90.0261C278.428 88.657 281.104 87.9724 284.05 87.9724C286.373 87.9724 288.531 88.4288 290.522 89.3415C292.555 90.2128 294.277 91.4782 295.688 93.1377L291.207 97.6807C290.336 96.6435 289.278 95.876 288.033 95.3781C286.83 94.8388 285.502 94.5691 284.05 94.5691C282.349 94.5691 280.835 94.9632 279.507 95.7515C278.221 96.4983 277.204 97.5355 276.458 98.8632C275.752 100.191 275.4 101.747 275.4 103.531C275.4 105.273 275.752 106.829 276.458 108.198C277.204 109.526 278.221 110.584 279.507 111.372C280.835 112.119 282.349 112.492 284.05 112.492C285.502 112.492 286.83 112.243 288.033 111.745C289.278 111.206 290.336 110.418 291.207 109.381L295.688 113.924C294.277 115.583 292.555 116.869 290.522 117.782C288.531 118.653 286.373 119.089 284.05 119.089ZM313.707 119.089C310.802 119.089 308.168 118.404 305.803 117.035C303.438 115.625 301.55 113.737 300.14 111.372C298.771 109.007 298.086 106.373 298.086 103.468C298.086 100.564 298.771 97.9504 300.14 95.627C301.55 93.3037 303.438 91.4574 305.803 90.0883C308.168 88.6777 310.802 87.9724 313.707 87.9724C316.652 87.9724 319.307 88.657 321.672 90.0261C324.037 91.3952 325.904 93.2622 327.273 95.627C328.684 97.9504 329.389 100.564 329.389 103.468C329.389 106.373 328.684 109.007 327.273 111.372C325.904 113.737 324.037 115.625 321.672 117.035C319.307 118.404 316.652 119.089 313.707 119.089ZM313.707 112.492C315.408 112.492 316.901 112.119 318.187 111.372C319.515 110.584 320.531 109.505 321.237 108.136C321.984 106.767 322.357 105.211 322.357 103.468C322.357 101.726 321.984 100.191 321.237 98.8632C320.49 97.5355 319.473 96.4983 318.187 95.7515C316.901 94.9632 315.408 94.5691 313.707 94.5691C312.047 94.5691 310.553 94.9632 309.226 95.7515C307.94 96.4983 306.923 97.5355 306.176 98.8632C305.471 100.191 305.118 101.726 305.118 103.468C305.118 105.211 305.471 106.767 306.176 108.136C306.923 109.505 307.94 110.584 309.226 111.372C310.553 112.119 312.047 112.492 313.707 112.492ZM347.342 119.089C344.811 119.089 342.55 118.529 340.559 117.409C338.609 116.288 337.074 114.753 335.953 112.803C334.875 110.812 334.335 108.53 334.335 105.958V88.5947H341.181V105.647C341.181 107.099 341.409 108.343 341.865 109.381C342.363 110.376 343.069 111.144 343.981 111.683C344.936 112.223 346.056 112.492 347.342 112.492C349.333 112.492 350.848 111.911 351.885 110.75C352.964 109.546 353.503 107.845 353.503 105.647V88.5947H360.349V105.958C360.349 108.571 359.789 110.874 358.668 112.866C357.59 114.816 356.075 116.351 354.125 117.471C352.175 118.55 349.914 119.089 347.342 119.089ZM377.314 118.467L363.684 88.5947H371.277L381.67 112.928H377.189L387.644 88.5947H394.925L381.296 118.467H377.314ZM411.801 119.089C408.814 119.089 406.117 118.425 403.71 117.097C401.346 115.728 399.458 113.861 398.047 111.496C396.678 109.132 395.994 106.476 395.994 103.531C395.994 100.585 396.678 97.9504 398.047 95.627C399.416 93.2622 401.263 91.3952 403.586 90.0261C405.951 88.657 408.565 87.9724 411.427 87.9724C414.207 87.9724 416.655 88.6155 418.771 89.9016C420.928 91.1878 422.609 92.951 423.812 95.1914C425.056 97.4318 425.679 99.9834 425.679 102.846C425.679 103.344 425.637 103.863 425.554 104.402C425.513 104.9 425.43 105.46 425.305 106.082H400.786V100.481H421.758L419.207 102.722C419.124 100.896 418.771 99.361 418.149 98.1164C417.526 96.8717 416.634 95.9175 415.473 95.2536C414.352 94.5898 412.962 94.2579 411.303 94.2579C409.56 94.2579 408.046 94.6313 406.76 95.3781C405.474 96.1249 404.478 97.1829 403.773 98.552C403.067 99.8796 402.715 101.477 402.715 103.344C402.715 105.211 403.088 106.85 403.835 108.26C404.582 109.671 405.64 110.77 407.009 111.559C408.378 112.306 409.955 112.679 411.739 112.679C413.274 112.679 414.684 112.409 415.97 111.87C417.298 111.33 418.418 110.542 419.331 109.505L423.687 113.924C422.235 115.625 420.472 116.911 418.397 117.782C416.323 118.653 414.124 119.089 411.801 119.089ZM431.166 118.467V88.5947H438.012V118.467H431.166ZM438.012 101.85L435.647 100.668C435.647 96.8925 436.477 93.843 438.136 91.5197C439.838 89.1548 442.389 87.9724 445.791 87.9724C447.285 87.9724 448.633 88.2421 449.836 88.7814C451.039 89.3208 452.16 90.192 453.197 91.3952L448.716 96.0004C448.177 95.4196 447.575 95.0047 446.911 94.7558C446.248 94.5069 445.48 94.3824 444.609 94.3824C442.7 94.3824 441.124 94.984 439.879 96.1871C438.634 97.3903 438.012 99.278 438.012 101.85Z" fill="white"/>
</svg>
